<svg width="34" height="34" viewBox="0 0 34 34" fill="none" xmlns="http://www.w3.org/2000/svg">
<path d="M33.7731 14.3318L30.3837 7.55035C30.2589 7.30075 30.0861 7.0782 29.8752 6.89539C29.6643 6.71258 29.4195 6.5731 29.1547 6.48492C28.8899 6.39674 28.6103 6.36158 28.332 6.38145C28.0536 6.40133 27.7818 6.47584 27.5323 6.60074L24.2292 8.2516L17.2712 6.41082C17.0926 6.36436 16.9052 6.36436 16.7266 6.41082L9.76859 8.2516L6.46554 6.60074C6.21597 6.47584 5.94423 6.40133 5.66585 6.38145C5.38747 6.36158 5.1079 6.39674 4.84311 6.48492C4.57832 6.5731 4.33349 6.71258 4.12261 6.89539C3.91173 7.0782 3.73892 7.30075 3.61406 7.55035L0.224685 14.3304C0.0997834 14.58 0.025268 14.8517 0.00539454 15.1301C-0.0144789 15.4085 0.020679 15.6881 0.10886 15.9529C0.197042 16.2177 0.336519 16.4625 0.519328 16.6734C0.702137 16.8842 0.924696 17.0571 1.17429 17.1819L4.76023 18.9762L12.13 24.2396C12.2386 24.3168 12.3607 24.3731 12.4899 24.4056L20.9899 26.5306C21.1679 26.5752 21.3545 26.573 21.5314 26.5241C21.7082 26.4752 21.8695 26.3814 21.9993 26.2517L29.3133 18.9364L32.8222 17.1819C33.3259 16.9297 33.7089 16.4879 33.887 15.9534C34.0651 15.419 34.0236 14.8357 33.7718 14.3318H33.7731ZM26.483 18.7637L21.913 15.1034C21.7082 14.9394 21.4501 14.857 21.1882 14.872C20.9263 14.8869 20.6793 14.9982 20.4945 15.1844C18.1291 17.5671 15.4928 17.2656 13.8114 16.2031L19.5542 10.625H23.779L27.3928 17.8513L26.483 18.7637ZM5.51461 8.49996L8.23328 9.85731L4.83726 16.6374L2.1239 15.2814L5.51461 8.49996ZM20.9209 24.3219L13.2031 22.3935L6.66875 17.7264L10.3875 10.2889L16.9989 8.53715L18.3005 8.88113L12.3239 14.6824L12.3133 14.6943C12.0883 14.9193 11.9167 15.1919 11.8112 15.4921C11.7056 15.7922 11.6689 16.1123 11.7035 16.4285C11.7382 16.7448 11.8435 17.0492 12.0115 17.3194C12.1796 17.5896 12.4062 17.8185 12.6745 17.9894C15.4052 19.7332 18.7002 19.4504 21.2954 17.3254L24.9677 20.2751L20.9209 24.3219ZM29.1552 16.6361L25.7659 9.86262L28.4832 8.49996L31.8739 15.2814L29.1552 16.6361ZM17.5009 28.9438C17.4435 29.1734 17.3111 29.3773 17.1246 29.5231C16.9382 29.6689 16.7083 29.7483 16.4716 29.7486C16.3843 29.7485 16.2974 29.7378 16.2127 29.7168L10.6784 28.3329C10.5489 28.3009 10.4268 28.2446 10.3184 28.1668L6.81883 25.6673C6.60364 25.4984 6.46193 25.2529 6.42318 24.9821C6.38444 24.7113 6.45165 24.4359 6.61083 24.2134C6.77001 23.9909 7.00888 23.8384 7.27771 23.7876C7.54653 23.7368 7.82459 23.7917 8.05398 23.9407L11.3889 26.3234L16.7333 27.6568C17.0066 27.7252 17.2416 27.8993 17.3865 28.1409C17.5315 28.3825 17.5745 28.6718 17.5062 28.9451L17.5009 28.9438Z" fill="white"/>
</svg>
