<svg width="58" height="58" viewBox="0 0 58 58" fill="none" xmlns="http://www.w3.org/2000/svg">
<rect width="58" height="58" rx="29" fill="#0E9594"/>
<path d="M29 15.1875C26.2682 15.1875 23.5976 15.9976 21.3262 17.5153C19.0547 19.0331 17.2844 21.1903 16.2389 23.7142C15.1935 26.2381 14.92 29.0153 15.4529 31.6947C15.9859 34.374 17.3014 36.8352 19.2331 38.7669C21.1648 40.6986 23.626 42.0141 26.3053 42.5471C28.9847 43.0801 31.7619 42.8065 34.2858 41.7611C36.8097 40.7157 38.9669 38.9453 40.4847 36.6738C42.0024 34.4024 42.8125 31.7319 42.8125 29C42.8086 25.3379 41.3522 21.8269 38.7626 19.2374C36.1731 16.6479 32.6621 15.1914 29 15.1875ZM40.6875 29C40.6887 30.4994 40.4 31.9849 39.8375 33.3748L33.9008 29.7238C33.6484 29.5681 33.366 29.4672 33.072 29.4277L30.0413 29.0186C29.6236 28.9641 29.1992 29.0341 28.8212 29.2198C28.4432 29.4055 28.1284 29.6987 27.9163 30.0625H26.7581L26.2534 29.0186C26.1139 28.7279 25.9097 28.473 25.6565 28.2734C25.4033 28.0739 25.1077 27.9349 24.7925 27.8671L23.73 27.6373L24.7686 25.8125H26.9879C27.347 25.8118 27.7001 25.7204 28.0145 25.5469L29.6415 24.6491C29.7844 24.5694 29.9181 24.4741 30.0399 24.3648L33.6139 21.1322C33.9722 20.8111 34.2104 20.3774 34.2891 19.9027C34.3678 19.428 34.2824 18.9407 34.0469 18.5211L33.9991 18.4348C35.999 19.383 37.6889 20.879 38.8728 22.7491C40.0567 24.6192 40.6859 26.7867 40.6875 29ZM31.0334 17.4905L32.1875 19.557L28.6135 22.7897L26.9879 23.6875H24.7686C24.3951 23.6869 24.028 23.7849 23.7043 23.9714C23.3807 24.1579 23.1119 24.4265 22.9252 24.75L21.7657 26.7727L20.4177 23.1815L21.8706 19.7456C23.1567 18.7519 24.6362 18.0378 26.2142 17.649C27.7923 17.2602 29.4342 17.2053 31.0347 17.4878L31.0334 17.4905ZM17.3125 29C17.3107 27.2628 17.6983 25.5474 18.4467 23.9797L19.9528 27.9999C20.0783 28.3328 20.2854 28.6288 20.555 28.8609C20.8247 29.0929 21.1483 29.2535 21.4961 29.328L24.3423 29.9403L24.8483 30.9922C25.0239 31.3499 25.2961 31.6515 25.634 31.8627C25.972 32.0739 26.3623 32.1864 26.7608 32.1875H26.9573L25.9971 34.343C25.8279 34.7226 25.7737 35.1434 25.8412 35.5535C25.9088 35.9635 26.095 36.3447 26.377 36.65L26.3956 36.6686L29 39.3514L28.7423 40.6795C25.6901 40.6085 22.7864 39.3474 20.651 37.1653C18.5156 34.9833 17.3176 32.0531 17.3125 29ZM30.9364 40.5255L31.0865 39.7538C31.1482 39.426 31.1322 39.0883 31.04 38.7677C30.9478 38.4472 30.7817 38.1526 30.5552 37.9077C30.5487 37.9019 30.5425 37.8957 30.5366 37.8891L27.9375 35.2077L29.757 31.125L32.7878 31.5341L38.86 35.2687C37.9803 36.6503 36.8206 37.832 35.4557 38.7375C34.0909 39.6429 32.5513 40.252 30.9364 40.5255Z" fill="white"/>
</svg>
