<svg width="34" height="34" viewBox="0 0 34 34" fill="none" xmlns="http://www.w3.org/2000/svg">
<path d="M17 3.1875C14.2682 3.1875 11.5976 3.99759 9.32619 5.51533C7.05474 7.03306 5.28436 9.19028 4.23892 11.7142C3.19348 14.2381 2.91995 17.0153 3.45291 19.6947C3.98587 22.374 5.30138 24.8352 7.23309 26.7669C9.16481 28.6986 11.626 30.0141 14.3053 30.5471C16.9847 31.0801 19.7619 30.8065 22.2858 29.7611C24.8097 28.7157 26.9669 26.9453 28.4847 24.6738C30.0024 22.4024 30.8125 19.7319 30.8125 17C30.8086 13.3379 29.3522 9.82687 26.7626 7.23736C24.1731 4.64785 20.6621 3.19137 17 3.1875ZM28.6875 17C28.6887 18.4994 28.4 19.9849 27.8375 21.3748L21.9008 17.7238C21.6484 17.5681 21.366 17.4672 21.072 17.4277L18.0413 17.0186C17.6236 16.9641 17.1992 17.0341 16.8212 17.2198C16.4432 17.4055 16.1284 17.6987 15.9163 18.0625H14.7581L14.2534 17.0186C14.1139 16.7279 13.9097 16.473 13.6565 16.2734C13.4033 16.0739 13.1077 15.9349 12.7925 15.8671L11.73 15.6373L12.7686 13.8125H14.9879C15.347 13.8118 15.7001 13.7204 16.0145 13.5469L17.6415 12.6491C17.7844 12.5694 17.9181 12.4741 18.0399 12.3648L21.6139 9.13219C21.9722 8.81106 22.2104 8.37739 22.2891 7.90271C22.3678 7.42802 22.2824 6.94069 22.0469 6.52109L21.9991 6.43477C23.999 7.38304 25.6889 8.87904 26.8728 10.7491C28.0567 12.6192 28.6859 14.7867 28.6875 17ZM19.0334 5.49047L20.1875 7.55703L16.6135 10.7897L14.9879 11.6875H12.7686C12.3951 11.6869 12.028 11.7849 11.7043 11.9714C11.3807 12.1579 11.1119 12.4265 10.9252 12.75L9.76571 14.7727L8.41766 11.1815L9.87063 7.74563C11.1567 6.75191 12.6362 6.03778 14.2142 5.64899C15.7923 5.26019 17.4342 5.20529 19.0347 5.48781L19.0334 5.49047ZM5.31251 17C5.31073 15.2628 5.6983 13.5474 6.44672 11.9797L7.95282 15.9999C8.07833 16.3328 8.2854 16.6288 8.55504 16.8609C8.82467 17.0929 9.14825 17.2535 9.4961 17.328L12.3423 17.9403L12.8483 18.9922C13.0239 19.3499 13.2961 19.6515 13.634 19.8627C13.972 20.0739 14.3623 20.1864 14.7608 20.1875H14.9573L13.9971 22.343C13.8279 22.7226 13.7737 23.1434 13.8412 23.5535C13.9088 23.9635 14.095 24.3447 14.377 24.65L14.3956 24.6686L17 27.3514L16.7423 28.6795C13.6901 28.6085 10.7864 27.3474 8.65104 25.1653C6.51564 22.9833 5.31757 20.0531 5.31251 17ZM18.9364 28.5255L19.0865 27.7538C19.1482 27.426 19.1322 27.0883 19.04 26.7677C18.9478 26.4472 18.7817 26.1526 18.5552 25.9077C18.5487 25.9019 18.5425 25.8957 18.5366 25.8891L15.9375 23.2077L17.757 19.125L20.7878 19.5341L26.86 23.2687C25.9803 24.6503 24.8206 25.832 23.4557 26.7375C22.0909 27.6429 20.5513 28.252 18.9364 28.5255Z" fill="white"/>
</svg>
