<svg width="58" height="58" viewBox="0 0 58 58" fill="none" xmlns="http://www.w3.org/2000/svg">
<rect width="58" height="58" rx="29" fill="#0E9594"/>
<path d="M45.6898 29.7518L42.5023 32.9393C42.4036 33.0381 42.2865 33.1165 42.1575 33.17C42.0285 33.2234 41.8902 33.2509 41.7506 33.2509C41.611 33.2509 41.4727 33.2234 41.3437 33.17C41.2147 33.1165 41.0975 33.0381 40.9989 32.9393L37.8114 29.7518C37.612 29.5525 37.5 29.2821 37.5 29.0001C37.5 28.7182 37.612 28.4478 37.8114 28.2484C38.0107 28.049 38.2811 27.937 38.5631 27.937C38.845 27.937 39.1154 28.049 39.3148 28.2484L40.6881 29.623V29.0001C40.6893 26.5253 39.9049 24.114 38.448 22.1136C36.991 20.1131 34.9366 18.6268 32.5808 17.8687C30.225 17.1106 27.6893 17.1199 25.3391 17.8952C22.9889 18.6705 20.9455 20.1718 19.5032 22.1828C19.3387 22.4118 19.09 22.566 18.8117 22.6116C18.5335 22.6572 18.2486 22.5904 18.0197 22.4259C17.7907 22.2614 17.6365 22.0127 17.5909 21.7345C17.5453 21.4563 17.6121 21.1713 17.7766 20.9424C19.4812 18.5657 21.8963 16.7915 24.6739 15.8753C27.4514 14.9592 30.4481 14.9483 33.2322 15.8444C36.0164 16.7404 38.4442 18.4971 40.166 20.8613C41.8878 23.2256 42.8147 26.0753 42.8131 29.0001V29.623L44.1864 28.2484C44.3857 28.049 44.6561 27.937 44.9381 27.937C45.22 27.937 45.4904 28.049 45.6898 28.2484C45.8892 28.4478 46.0012 28.7182 46.0012 29.0001C46.0012 29.2821 45.8892 29.5525 45.6898 29.7518ZM40.2206 37.0565C38.5155 39.4314 36.1008 41.2039 33.3241 42.1191C30.5474 43.0342 27.552 43.0447 24.769 42.149C21.986 41.2533 19.5589 39.4977 17.8372 37.1348C16.1155 34.7719 15.188 31.9237 15.1881 29.0001V28.3772L13.8148 29.7518C13.6154 29.9512 13.345 30.0632 13.0631 30.0632C12.7811 30.0632 12.5107 29.9512 12.3114 29.7518C12.112 29.5525 12 29.2821 12 29.0001C12 28.7182 12.112 28.4478 12.3114 28.2484L15.4989 25.0609C15.5975 24.9621 15.7147 24.8837 15.8437 24.8303C15.9727 24.7768 16.111 24.7493 16.2506 24.7493C16.3902 24.7493 16.5285 24.7768 16.6575 24.8303C16.7865 24.8837 16.9036 24.9621 17.0023 25.0609L20.1898 28.2484C20.3892 28.4478 20.5012 28.7182 20.5012 29.0001C20.5012 29.2821 20.3892 29.5525 20.1898 29.7518C19.9904 29.9512 19.72 30.0632 19.4381 30.0632C19.1561 30.0632 18.8857 29.9512 18.6864 29.7518L17.3131 28.3772V29.0001C17.3106 31.8612 18.3621 34.6229 20.2668 36.7577C21.4518 35.0405 23.1181 33.7121 25.0561 32.9393C24.0151 32.1194 23.2554 30.9955 22.8828 29.7238C22.5102 28.4521 22.5431 27.096 22.977 25.8439C23.4109 24.5918 24.2241 23.506 25.3037 22.7376C26.3833 21.9691 27.6755 21.5562 29.0006 21.5562C30.3257 21.5562 31.6179 21.9691 32.6975 22.7376C33.777 23.506 34.5903 24.5918 35.0242 25.8439C35.4581 27.096 35.491 28.4521 35.1184 29.7238C34.7458 30.9955 33.9861 32.1194 32.9451 32.9393C34.8849 33.7122 36.5523 35.0422 37.737 36.7617C38.0056 36.46 38.2587 36.1448 38.4954 35.8174C38.6599 35.5884 38.9086 35.4342 39.1868 35.3886C39.465 35.343 39.7499 35.4098 39.9789 35.5743C40.2078 35.7388 40.3621 35.9875 40.4076 36.2658C40.4532 36.544 40.3864 36.8289 40.2219 37.0578L40.2206 37.0565ZM29.0006 32.1876C29.8412 32.1876 30.6629 31.9384 31.3618 31.4714C32.0607 31.0044 32.6054 30.3406 32.9271 29.564C33.2488 28.7874 33.3329 27.9329 33.1689 27.1085C33.0049 26.2841 32.6002 25.5268 32.0058 24.9324C31.4114 24.338 30.6541 23.9333 29.8297 23.7693C29.0053 23.6053 28.1508 23.6895 27.3742 24.0111C26.5976 24.3328 25.9338 24.8775 25.4668 25.5764C24.9998 26.2753 24.7506 27.097 24.7506 27.9376C24.7506 29.0648 25.1984 30.1458 25.9954 30.9428C26.7924 31.7398 27.8734 32.1876 29.0006 32.1876ZM29.0006 40.6876C31.5937 40.6842 34.1124 39.8205 36.1618 38.2319C35.3932 37.0298 34.3343 36.0405 33.0828 35.3553C31.8313 34.67 30.4274 34.3108 29.0006 34.3108C27.5738 34.3108 26.1699 34.67 24.9184 35.3553C23.6668 36.0405 22.608 37.0298 21.8393 38.2319C23.8857 39.8262 26.4064 40.6906 29.0006 40.6876Z" fill="white"/>
</svg>
