<svg width="34" height="34" viewBox="0 0 34 34" fill="none" xmlns="http://www.w3.org/2000/svg">
<path d="M33.6898 17.7518L30.5023 20.9393C30.4036 21.0381 30.2865 21.1165 30.1575 21.17C30.0285 21.2234 29.8902 21.2509 29.7506 21.2509C29.611 21.2509 29.4727 21.2234 29.3437 21.17C29.2147 21.1165 29.0975 21.0381 28.9989 20.9393L25.8114 17.7518C25.612 17.5525 25.5 17.2821 25.5 17.0001C25.5 16.7182 25.612 16.4478 25.8114 16.2484C26.0107 16.049 26.2811 15.937 26.5631 15.937C26.845 15.937 27.1154 16.049 27.3148 16.2484L28.6881 17.623V17.0001C28.6893 14.5253 27.9049 12.114 26.448 10.1136C24.991 8.11314 22.9366 6.62681 20.5808 5.86872C18.225 5.11062 15.6893 5.11989 13.3391 5.89519C10.9889 6.67049 8.94548 8.1718 7.50317 10.1828C7.33867 10.4118 7.08996 10.566 6.81175 10.6116C6.53353 10.6572 6.24861 10.5904 6.01965 10.4259C5.7907 10.2614 5.63646 10.0127 5.59088 9.73447C5.5453 9.45626 5.61211 9.17134 5.77661 8.94238C7.48124 6.56573 9.89629 4.79152 12.6739 3.87534C15.4514 2.95916 18.4481 2.94831 21.2322 3.84436C24.0164 4.7404 26.4442 6.49708 28.166 8.86133C29.8878 11.2256 30.8147 14.0753 30.8131 17.0001V17.623L32.1864 16.2484C32.3857 16.049 32.6561 15.937 32.9381 15.937C33.22 15.937 33.4904 16.049 33.6898 16.2484C33.8892 16.4478 34.0012 16.7182 34.0012 17.0001C34.0012 17.2821 33.8892 17.5525 33.6898 17.7518ZM28.2206 25.0565C26.5155 27.4314 24.1008 29.2039 21.3241 30.1191C18.5474 31.0342 15.552 31.0447 12.769 30.149C9.98595 29.2533 7.55891 27.4977 5.83722 25.1348C4.11552 22.7719 3.18797 19.9237 3.18809 17.0001V16.3772L1.81481 17.7518C1.61544 17.9512 1.34504 18.0632 1.06309 18.0632C0.781142 18.0632 0.51074 17.9512 0.311372 17.7518C0.112004 17.5525 0 17.2821 0 17.0001C0 16.7182 0.112004 16.4478 0.311372 16.2484L3.49887 13.0609C3.59755 12.9621 3.71473 12.8837 3.84372 12.8303C3.9727 12.7768 4.11096 12.7493 4.25059 12.7493C4.39022 12.7493 4.52848 12.7768 4.65746 12.8303C4.78645 12.8837 4.90363 12.9621 5.00231 13.0609L8.18981 16.2484C8.38918 16.4478 8.50118 16.7182 8.50118 17.0001C8.50118 17.2821 8.38918 17.5525 8.18981 17.7518C7.99044 17.9512 7.72004 18.0632 7.43809 18.0632C7.15614 18.0632 6.88574 17.9512 6.68637 17.7518L5.31309 16.3772V17.0001C5.31057 19.8612 6.36211 22.6229 8.26684 24.7577C9.45184 23.0405 11.1181 21.7121 13.0561 20.9393C12.0151 20.1194 11.2554 18.9955 10.8828 17.7238C10.5102 16.4521 10.5431 15.096 10.977 13.8439C11.4109 12.5918 12.2241 11.506 13.3037 10.7376C14.3833 9.96914 15.6755 9.55621 17.0006 9.55621C18.3257 9.55621 19.6179 9.96914 20.6975 10.7376C21.777 11.506 22.5903 12.5918 23.0242 13.8439C23.4581 15.096 23.491 16.4521 23.1184 17.7238C22.7458 18.9955 21.9861 20.1194 20.9451 20.9393C22.8849 21.7122 24.5523 23.0422 25.737 24.7617C26.0056 24.46 26.2587 24.1448 26.4954 23.8174C26.6599 23.5884 26.9086 23.4342 27.1868 23.3886C27.465 23.343 27.7499 23.4098 27.9789 23.5743C28.2078 23.7388 28.3621 23.9875 28.4076 24.2658C28.4532 24.544 28.3864 24.8289 28.2219 25.0578L28.2206 25.0565ZM17.0006 20.1876C17.8412 20.1876 18.6629 19.9384 19.3618 19.4714C20.0607 19.0044 20.6054 18.3406 20.9271 17.564C21.2488 16.7874 21.3329 15.9329 21.1689 15.1085C21.0049 14.2841 20.6002 13.5268 20.0058 12.9324C19.4114 12.338 18.6541 11.9333 17.8297 11.7693C17.0053 11.6053 16.1508 11.6895 15.3742 12.0111C14.5976 12.3328 13.9338 12.8775 13.4668 13.5764C12.9998 14.2753 12.7506 15.097 12.7506 15.9376C12.7506 17.0648 13.1984 18.1458 13.9954 18.9428C14.7924 19.7398 15.8734 20.1876 17.0006 20.1876ZM17.0006 28.6876C19.5937 28.6842 22.1124 27.8205 24.1618 26.2319C23.3932 25.0298 22.3343 24.0405 21.0828 23.3553C19.8313 22.67 18.4274 22.3108 17.0006 22.3108C15.5738 22.3108 14.1699 22.67 12.9184 23.3553C11.6668 24.0405 10.608 25.0298 9.83934 26.2319C11.8857 27.8262 14.4064 28.6906 17.0006 28.6876Z" fill="white"/>
</svg>
