<svg width="58" height="58" viewBox="0 0 58 58" fill="none" xmlns="http://www.w3.org/2000/svg">
<rect width="58" height="58" rx="29" fill="#0E9594"/>
<path d="M45.7731 26.3318L42.3837 19.5504C42.2589 19.3008 42.0861 19.0782 41.8752 18.8954C41.6643 18.7126 41.4195 18.5731 41.1547 18.4849C40.8899 18.3967 40.6103 18.3616 40.332 18.3815C40.0536 18.4013 39.7818 18.4758 39.5323 18.6007L36.2292 20.2516L29.2712 18.4108C29.0926 18.3644 28.9052 18.3644 28.7266 18.4108L21.7686 20.2516L18.4655 18.6007C18.216 18.4758 17.9442 18.4013 17.6658 18.3815C17.3875 18.3616 17.1079 18.3967 16.8431 18.4849C16.5783 18.5731 16.3335 18.7126 16.1226 18.8954C15.9117 19.0782 15.7389 19.3008 15.6141 19.5504L12.2247 26.3304C12.0998 26.58 12.0253 26.8517 12.0054 27.1301C11.9855 27.4085 12.0207 27.6881 12.1089 27.9529C12.197 28.2177 12.3365 28.4625 12.5193 28.6734C12.7021 28.8842 12.9247 29.0571 13.1743 29.1819L16.7602 30.9762L24.13 36.2396C24.2386 36.3168 24.3607 36.3731 24.4899 36.4056L32.9899 38.5306C33.1679 38.5752 33.3545 38.573 33.5314 38.5241C33.7082 38.4752 33.8695 38.3814 33.9993 38.2517L41.3133 30.9364L44.8222 29.1819C45.3259 28.9297 45.7089 28.4879 45.887 27.9534C46.0651 27.419 46.0236 26.8357 45.7718 26.3318H45.7731ZM38.483 30.7637L33.913 27.1034C33.7082 26.9394 33.4501 26.857 33.1882 26.872C32.9263 26.8869 32.6793 26.9982 32.4945 27.1844C30.1291 29.5671 27.4928 29.2656 25.8114 28.2031L31.5542 22.625H35.779L39.3928 29.8513L38.483 30.7637ZM17.5146 20.5L20.2333 21.8573L16.8373 28.6374L14.1239 27.2814L17.5146 20.5ZM32.9209 36.3219L25.2031 34.3935L18.6687 29.7264L22.3875 22.2889L28.9989 20.5372L30.3005 20.8811L24.3239 26.6824L24.3133 26.6943C24.0883 26.9193 23.9167 27.1919 23.8112 27.4921C23.7056 27.7922 23.6689 28.1123 23.7035 28.4285C23.7382 28.7448 23.8435 29.0492 24.0115 29.3194C24.1796 29.5896 24.4062 29.8185 24.6745 29.9894C27.4052 31.7332 30.7002 31.4504 33.2954 29.3254L36.9677 32.2751L32.9209 36.3219ZM41.1552 28.6361L37.7659 21.8626L40.4832 20.5L43.8739 27.2814L41.1552 28.6361ZM29.5009 40.9438C29.4435 41.1734 29.3111 41.3773 29.1246 41.5231C28.9382 41.6689 28.7083 41.7483 28.4716 41.7486C28.3843 41.7485 28.2974 41.7378 28.2127 41.7168L22.6784 40.3329C22.5489 40.3009 22.4268 40.2446 22.3184 40.1668L18.8188 37.6673C18.6036 37.4984 18.4619 37.2529 18.4232 36.9821C18.3844 36.7113 18.4517 36.4359 18.6108 36.2134C18.77 35.9909 19.0089 35.8384 19.2777 35.7876C19.5465 35.7368 19.8246 35.7917 20.054 35.9407L23.3889 38.3234L28.7333 39.6568C29.0066 39.7252 29.2416 39.8993 29.3865 40.1409C29.5315 40.3825 29.5745 40.6718 29.5062 40.9451L29.5009 40.9438Z" fill="white"/>
</svg>
