<svg width="58" height="58" viewBox="0 0 58 58" fill="none" xmlns="http://www.w3.org/2000/svg">
<rect width="58" height="58" rx="29" fill="#0E9594"/>
<path d="M29 15.1875C26.2682 15.1875 23.5976 15.9976 21.3262 17.5153C19.0547 19.0331 17.2844 21.1903 16.2389 23.7142C15.1935 26.2381 14.92 29.0153 15.4529 31.6947C15.9859 34.374 17.3014 36.8352 19.2331 38.7669C21.1648 40.6986 23.626 42.0141 26.3053 42.5471C28.9847 43.0801 31.7619 42.8065 34.2858 41.7611C36.8097 40.7157 38.9669 38.9453 40.4847 36.6738C42.0024 34.4024 42.8125 31.7319 42.8125 29C42.8086 25.3379 41.3522 21.8269 38.7626 19.2374C36.1731 16.6479 32.6621 15.1914 29 15.1875ZM29 40.6875C26.6884 40.6875 24.4288 40.002 22.5068 38.7178C20.5848 37.4336 19.0868 35.6082 18.2022 33.4726C17.3176 31.337 17.0861 28.987 17.5371 26.7199C17.988 24.4527 19.1012 22.3702 20.7357 20.7357C22.3702 19.1012 24.4527 17.988 26.7199 17.5371C28.987 17.0861 31.337 17.3176 33.4726 18.2022C35.6082 19.0868 37.4336 20.5848 38.7178 22.5068C40.002 24.4288 40.6875 26.6884 40.6875 29C40.684 32.0986 39.4515 35.0694 37.2604 37.2604C35.0694 39.4515 32.0986 40.684 29 40.6875ZM22.625 26.3438C22.625 26.0285 22.7185 25.7204 22.8936 25.4583C23.0687 25.1962 23.3176 24.9919 23.6089 24.8713C23.9001 24.7507 24.2205 24.7191 24.5297 24.7806C24.8388 24.8421 25.1228 24.9939 25.3457 25.2168C25.5686 25.4397 25.7204 25.7237 25.7819 26.0328C25.8434 26.342 25.8118 26.6624 25.6912 26.9537C25.5706 27.2449 25.3663 27.4938 25.1042 27.6689C24.8421 27.844 24.534 27.9375 24.2188 27.9375C23.7961 27.9375 23.3907 27.7696 23.0918 27.4707C22.7929 27.1718 22.625 26.7664 22.625 26.3438ZM35.375 26.3438C35.375 26.659 35.2815 26.9671 35.1064 27.2292C34.9313 27.4913 34.6824 27.6956 34.3912 27.8162C34.0999 27.9368 33.7795 27.9684 33.4703 27.9069C33.1612 27.8454 32.8772 27.6936 32.6543 27.4707C32.4314 27.2478 32.2796 26.9638 32.2181 26.6547C32.1566 26.3455 32.1882 26.0251 32.3088 25.7338C32.4295 25.4426 32.6337 25.1937 32.8958 25.0186C33.1579 24.8435 33.466 24.75 33.7813 24.75C34.2039 24.75 34.6093 24.9179 34.9082 25.2168C35.2071 25.5157 35.375 25.9211 35.375 26.3438ZM35.2329 32.7188C33.8663 35.0815 31.5938 36.4375 29 36.4375C26.4062 36.4375 24.1351 35.0828 22.7684 32.7188C22.6916 32.5978 22.6399 32.4626 22.6167 32.3212C22.5934 32.1798 22.599 32.0351 22.6331 31.896C22.6672 31.7568 22.7291 31.6259 22.8151 31.5113C22.901 31.3966 23.0093 31.3006 23.1334 31.2289C23.2574 31.1572 23.3947 31.1113 23.537 31.094C23.6792 31.0767 23.8235 31.0884 23.9611 31.1283C24.0988 31.1682 24.2269 31.2356 24.3378 31.3263C24.4487 31.417 24.5401 31.5293 24.6066 31.6562C25.5987 33.3709 27.1579 34.3125 29 34.3125C30.8421 34.3125 32.4013 33.3695 33.3921 31.6562C33.533 31.4121 33.7651 31.234 34.0373 31.161C34.3096 31.0881 34.5997 31.1262 34.8438 31.2671C35.0879 31.408 35.266 31.6401 35.339 31.9123C35.4119 32.1846 35.3738 32.4746 35.2329 32.7188Z" fill="white"/>
</svg>
