<svg width="58" height="58" viewBox="0 0 58 58" fill="none" xmlns="http://www.w3.org/2000/svg">
<rect width="58" height="58" rx="29" fill="#0E9594"/>
<path d="M29.0017 44.2434C27.4575 44.2434 25.9275 43.79 24.7234 42.8975L18.6317 38.35C17.0167 37.1459 15.7559 34.6242 15.7559 32.6267V22.0867C15.7559 19.905 17.3567 17.5817 19.4109 16.8167L26.48 14.1675C27.8825 13.6434 30.0925 13.6434 31.495 14.1675L38.5642 16.8167C40.6184 17.5817 42.2192 19.905 42.2192 22.0867V32.6125C42.2192 34.6242 40.9584 37.1317 39.3434 38.3359L33.2517 42.8834C32.0759 43.79 30.5459 44.2434 29.0017 44.2434ZM27.2309 16.165L20.1617 18.8142C18.9575 19.2675 17.895 20.7975 17.895 22.1009V32.6267C17.895 33.9725 18.8442 35.8567 19.9067 36.65L25.9984 41.1975C27.6275 42.4159 30.3759 42.4159 32.0192 41.1975L38.1109 36.65C39.1875 35.8425 40.1225 33.9725 40.1225 32.6267V22.0867C40.1225 20.7975 39.06 19.2675 37.8559 18.8L30.7867 16.1509C29.8234 15.8109 28.18 15.8109 27.2309 16.165Z" fill="white"/>
<path d="M27.1015 32.1594C26.8323 32.1594 26.5632 32.0602 26.3507 31.8477L24.0698 29.5669C23.659 29.1561 23.659 28.4761 24.0698 28.0652C24.4807 27.6544 25.1607 27.6544 25.5715 28.0652L27.1015 29.5952L32.4423 24.2544C32.8532 23.8436 33.5332 23.8436 33.944 24.2544C34.3548 24.6652 34.3548 25.3452 33.944 25.7561L27.8523 31.8477C27.6398 32.0602 27.3707 32.1594 27.1015 32.1594Z" fill="white"/>
</svg>
